<svg width="659" height="752" viewBox="0 0 659 752" fill="none" xmlns="http://www.w3.org/2000/svg">
<g id="new-batch-form">
<path id="Rectangle 239" d="M0 39.4144C0 17.6465 17.6464 0 39.4144 0H619.586C641.354 0 659 17.6464 659 39.4144V712.586C659 734.354 641.354 752 619.586 752H39.4144C17.6464 752 0 734.354 0 712.586V39.4144Z" fill="#7CA5CF"/>
<g id="name">
<path id="Rectangle 210" d="M43.1621 63.8515C43.1621 45.131 58.338 29.9551 77.0585 29.9551H579.986C598.707 29.9551 613.883 45.131 613.883 63.8515C613.883 82.5719 598.707 97.7479 579.986 97.7479H77.0585C58.3381 97.7479 43.1621 82.5719 43.1621 63.8515Z" fill="#F9F9F9"/>
</g>
<g id="Group 121">
<g id="add-new-batch-button">
<path id="Rectangle 214" d="M376 591.649C376 578.588 386.588 568 399.649 568H517.649C530.71 568 541.298 578.588 541.298 591.649V621.351C541.298 634.412 530.71 645 517.649 645H399.649C386.588 645 376 634.412 376 621.351V591.649Z" fill="#FEC25A"/>
<path id="Add a new Batch" d="M418.855 588.986L414.502 601.615H411.87L417.354 587.044H419.035L418.855 588.986ZM422.498 601.615L418.134 588.986L417.944 587.044H419.635L425.14 601.615H422.498ZM422.287 596.211V598.203H414.362V596.211H422.287ZM433.136 599.374V586.244H435.558V601.615H433.366L433.136 599.374ZM426.09 596.321V596.111C426.09 595.29 426.187 594.543 426.381 593.869C426.574 593.189 426.854 592.605 427.221 592.118C427.588 591.624 428.035 591.247 428.562 590.987C429.089 590.72 429.683 590.587 430.344 590.587C430.997 590.587 431.571 590.714 432.065 590.967C432.559 591.221 432.979 591.584 433.326 592.058C433.673 592.525 433.95 593.085 434.156 593.739C434.363 594.386 434.51 595.107 434.597 595.901V596.571C434.51 597.345 434.363 598.053 434.156 598.693C433.95 599.334 433.673 599.887 433.326 600.354C432.979 600.821 432.555 601.182 432.055 601.435C431.561 601.689 430.984 601.815 430.324 601.815C429.67 601.815 429.079 601.679 428.552 601.405C428.032 601.132 427.588 600.748 427.221 600.254C426.854 599.76 426.574 599.18 426.381 598.513C426.187 597.839 426.09 597.108 426.09 596.321ZM428.502 596.111V596.321C428.502 596.815 428.546 597.275 428.632 597.702C428.726 598.129 428.869 598.506 429.063 598.833C429.256 599.153 429.506 599.407 429.813 599.594C430.127 599.774 430.5 599.864 430.934 599.864C431.481 599.864 431.931 599.744 432.285 599.504C432.639 599.263 432.916 598.94 433.116 598.533C433.323 598.119 433.463 597.659 433.536 597.152V595.34C433.496 594.947 433.413 594.58 433.286 594.24C433.166 593.899 433.002 593.603 432.795 593.349C432.589 593.089 432.332 592.889 432.025 592.749C431.725 592.602 431.368 592.528 430.954 592.528C430.514 592.528 430.14 592.622 429.833 592.809C429.526 592.995 429.273 593.252 429.073 593.579C428.879 593.906 428.736 594.286 428.642 594.72C428.549 595.154 428.502 595.617 428.502 596.111ZM444.684 599.374V586.244H447.106V601.615H444.915L444.684 599.374ZM437.639 596.321V596.111C437.639 595.29 437.736 594.543 437.929 593.869C438.123 593.189 438.403 592.605 438.77 592.118C439.137 591.624 439.584 591.247 440.111 590.987C440.638 590.72 441.232 590.587 441.892 590.587C442.546 590.587 443.12 590.714 443.614 590.967C444.107 591.221 444.528 591.584 444.875 592.058C445.221 592.525 445.498 593.085 445.705 593.739C445.912 594.386 446.059 595.107 446.146 595.901V596.571C446.059 597.345 445.912 598.053 445.705 598.693C445.498 599.334 445.221 599.887 444.875 600.354C444.528 600.821 444.104 601.182 443.604 601.435C443.11 601.689 442.533 601.815 441.872 601.815C441.218 601.815 440.628 601.679 440.101 601.405C439.581 601.132 439.137 600.748 438.77 600.254C438.403 599.76 438.123 599.18 437.929 598.513C437.736 597.839 437.639 597.108 437.639 596.321ZM440.051 596.111V596.321C440.051 596.815 440.094 597.275 440.181 597.702C440.274 598.129 440.418 598.506 440.611 598.833C440.805 599.153 441.055 599.407 441.362 599.594C441.675 599.774 442.049 599.864 442.483 599.864C443.03 599.864 443.48 599.744 443.834 599.504C444.187 599.263 444.464 598.94 444.664 598.533C444.871 598.119 445.011 597.659 445.085 597.152V595.34C445.045 594.947 444.961 594.58 444.835 594.24C444.714 593.899 444.551 593.603 444.344 593.349C444.137 593.089 443.88 592.889 443.574 592.749C443.273 592.602 442.916 592.528 442.503 592.528C442.062 592.528 441.689 592.622 441.382 592.809C441.075 592.995 440.822 593.252 440.621 593.579C440.428 593.906 440.284 594.286 440.191 594.72C440.098 595.154 440.051 595.617 440.051 596.111ZM460.837 599.444V594.28C460.837 593.893 460.767 593.559 460.626 593.279C460.486 592.999 460.273 592.782 459.986 592.628C459.706 592.475 459.352 592.398 458.925 592.398C458.532 592.398 458.191 592.465 457.904 592.598C457.618 592.732 457.394 592.912 457.234 593.139C457.074 593.366 456.994 593.623 456.994 593.909H454.592C454.592 593.482 454.695 593.069 454.902 592.668C455.109 592.268 455.409 591.911 455.803 591.598C456.196 591.284 456.667 591.037 457.214 590.857C457.761 590.677 458.375 590.587 459.055 590.587C459.869 590.587 460.59 590.724 461.217 590.997C461.851 591.271 462.348 591.684 462.708 592.238C463.075 592.785 463.258 593.472 463.258 594.3V599.113C463.258 599.607 463.292 600.051 463.359 600.444C463.432 600.831 463.535 601.168 463.669 601.455V601.615H461.197C461.083 601.355 460.993 601.025 460.927 600.624C460.867 600.218 460.837 599.824 460.837 599.444ZM461.187 595.03L461.207 596.521H459.476C459.029 596.521 458.635 596.565 458.295 596.651C457.954 596.732 457.671 596.852 457.444 597.012C457.217 597.172 457.047 597.365 456.934 597.592C456.82 597.819 456.764 598.076 456.764 598.363C456.764 598.65 456.83 598.913 456.964 599.153C457.097 599.387 457.291 599.57 457.544 599.704C457.804 599.837 458.118 599.904 458.485 599.904C458.979 599.904 459.409 599.804 459.776 599.604C460.149 599.397 460.443 599.147 460.657 598.853C460.87 598.553 460.983 598.269 460.997 598.003L461.777 599.073C461.697 599.347 461.561 599.64 461.367 599.954C461.174 600.268 460.92 600.568 460.606 600.855C460.3 601.135 459.929 601.365 459.496 601.545C459.069 601.725 458.575 601.815 458.015 601.815C457.307 601.815 456.677 601.675 456.123 601.395C455.569 601.108 455.136 600.725 454.822 600.244C454.509 599.757 454.352 599.207 454.352 598.593C454.352 598.019 454.458 597.512 454.672 597.072C454.892 596.625 455.212 596.251 455.633 595.951C456.06 595.651 456.58 595.424 457.194 595.27C457.808 595.11 458.508 595.03 459.295 595.03H461.187ZM473.276 593.099V601.615H470.864V590.787H473.136L473.276 593.099ZM472.846 595.801L472.065 595.791C472.072 595.024 472.179 594.32 472.385 593.679C472.599 593.039 472.892 592.488 473.266 592.028C473.646 591.568 474.1 591.214 474.627 590.967C475.154 590.714 475.741 590.587 476.388 590.587C476.909 590.587 477.379 590.66 477.799 590.807C478.226 590.947 478.59 591.177 478.89 591.498C479.197 591.818 479.431 592.235 479.591 592.749C479.751 593.256 479.831 593.879 479.831 594.62V601.615H477.409V594.61C477.409 594.09 477.332 593.679 477.179 593.379C477.032 593.072 476.815 592.855 476.529 592.729C476.248 592.595 475.898 592.528 475.478 592.528C475.064 592.528 474.694 592.615 474.367 592.789C474.04 592.962 473.763 593.199 473.536 593.499C473.316 593.799 473.146 594.146 473.026 594.54C472.906 594.934 472.846 595.354 472.846 595.801ZM487.066 601.815C486.266 601.815 485.542 601.685 484.895 601.425C484.254 601.158 483.707 600.788 483.254 600.314C482.807 599.841 482.463 599.283 482.223 598.643C481.983 598.003 481.863 597.312 481.863 596.571V596.171C481.863 595.324 481.986 594.557 482.233 593.869C482.48 593.182 482.823 592.595 483.264 592.108C483.704 591.614 484.224 591.237 484.825 590.977C485.425 590.717 486.076 590.587 486.776 590.587C487.55 590.587 488.227 590.717 488.808 590.977C489.388 591.237 489.869 591.604 490.249 592.078C490.636 592.545 490.923 593.102 491.11 593.749C491.303 594.396 491.4 595.11 491.4 595.891V596.922H483.033V595.19H489.018V595C489.005 594.567 488.918 594.16 488.758 593.779C488.604 593.399 488.367 593.092 488.047 592.859C487.727 592.625 487.3 592.508 486.766 592.508C486.366 592.508 486.009 592.595 485.695 592.769C485.389 592.935 485.132 593.179 484.925 593.499C484.718 593.819 484.558 594.206 484.444 594.66C484.338 595.107 484.284 595.611 484.284 596.171V596.571C484.284 597.045 484.348 597.485 484.475 597.892C484.608 598.293 484.801 598.643 485.055 598.943C485.308 599.243 485.615 599.48 485.976 599.654C486.336 599.821 486.746 599.904 487.207 599.904C487.787 599.904 488.304 599.787 488.758 599.554C489.211 599.32 489.605 598.99 489.939 598.563L491.21 599.794C490.976 600.134 490.673 600.461 490.299 600.775C489.925 601.081 489.468 601.332 488.928 601.525C488.394 601.719 487.774 601.815 487.066 601.815ZM496.223 599.213L498.725 590.787H500.266L499.846 593.309L497.324 601.615H495.943L496.223 599.213ZM494.752 590.787L496.704 599.253L496.864 601.615H495.323L492.39 590.787H494.752ZM502.608 599.153L504.5 590.787H506.851L503.929 601.615H502.388L502.608 599.153ZM500.527 590.787L502.999 599.113L503.309 601.615H501.928L499.376 593.299L498.955 590.787H500.527ZM439.961 619.03H436.248L436.228 617.199H439.47C440.018 617.199 440.481 617.119 440.862 616.959C441.248 616.792 441.542 616.555 441.742 616.248C441.942 615.935 442.042 615.558 442.042 615.117C442.042 614.63 441.949 614.233 441.762 613.926C441.575 613.619 441.289 613.396 440.902 613.256C440.521 613.116 440.034 613.046 439.44 613.046H437.009V625.615H434.497V611.044H439.44C440.241 611.044 440.955 611.121 441.582 611.274C442.216 611.428 442.753 611.668 443.193 611.995C443.64 612.315 443.977 612.722 444.204 613.216C444.438 613.71 444.554 614.297 444.554 614.977C444.554 615.578 444.411 616.128 444.124 616.628C443.837 617.122 443.413 617.526 442.853 617.839C442.293 618.153 441.595 618.34 440.761 618.4L439.961 619.03ZM439.851 625.615H435.457L436.588 623.624H439.851C440.418 623.624 440.892 623.53 441.272 623.344C441.652 623.15 441.936 622.887 442.122 622.553C442.316 622.213 442.413 621.816 442.413 621.362C442.413 620.888 442.329 620.478 442.163 620.131C441.996 619.777 441.732 619.507 441.372 619.32C441.012 619.127 440.541 619.03 439.961 619.03H437.139L437.159 617.199H440.832L441.402 617.889C442.203 617.916 442.86 618.093 443.373 618.42C443.894 618.747 444.281 619.17 444.534 619.691C444.788 620.211 444.915 620.772 444.915 621.372C444.915 622.299 444.711 623.077 444.304 623.704C443.904 624.331 443.327 624.808 442.573 625.135C441.819 625.455 440.912 625.615 439.851 625.615ZM453.311 623.444V618.28C453.311 617.893 453.241 617.559 453.101 617.279C452.961 616.999 452.747 616.782 452.46 616.628C452.18 616.475 451.826 616.398 451.4 616.398C451.006 616.398 450.666 616.465 450.379 616.598C450.092 616.732 449.868 616.912 449.708 617.139C449.548 617.366 449.468 617.623 449.468 617.909H447.066C447.066 617.482 447.17 617.069 447.376 616.668C447.583 616.268 447.884 615.911 448.277 615.598C448.671 615.284 449.141 615.037 449.688 614.857C450.235 614.677 450.849 614.587 451.53 614.587C452.344 614.587 453.064 614.724 453.691 614.997C454.325 615.271 454.822 615.684 455.182 616.238C455.549 616.785 455.733 617.472 455.733 618.3V623.113C455.733 623.607 455.766 624.051 455.833 624.444C455.906 624.831 456.01 625.168 456.143 625.455V625.615H453.671C453.558 625.355 453.468 625.025 453.401 624.624C453.341 624.218 453.311 623.824 453.311 623.444ZM453.661 619.03L453.681 620.521H451.95C451.503 620.521 451.109 620.565 450.769 620.651C450.429 620.732 450.145 620.852 449.918 621.012C449.692 621.172 449.521 621.365 449.408 621.592C449.295 621.819 449.238 622.076 449.238 622.363C449.238 622.65 449.305 622.913 449.438 623.153C449.571 623.387 449.765 623.57 450.018 623.704C450.279 623.837 450.592 623.904 450.959 623.904C451.453 623.904 451.883 623.804 452.25 623.604C452.624 623.397 452.917 623.147 453.131 622.853C453.344 622.553 453.458 622.269 453.471 622.003L454.252 623.073C454.172 623.347 454.035 623.64 453.841 623.954C453.648 624.268 453.394 624.568 453.081 624.855C452.774 625.135 452.404 625.365 451.97 625.545C451.543 625.725 451.049 625.815 450.489 625.815C449.782 625.815 449.151 625.675 448.597 625.395C448.044 625.108 447.61 624.725 447.296 624.244C446.983 623.757 446.826 623.207 446.826 622.593C446.826 622.019 446.933 621.512 447.146 621.072C447.366 620.625 447.687 620.251 448.107 619.951C448.534 619.651 449.054 619.424 449.668 619.27C450.282 619.11 450.983 619.03 451.77 619.03H453.661ZM463.218 614.787V616.548H457.114V614.787H463.218ZM458.875 612.135H461.287V622.623C461.287 622.957 461.334 623.213 461.427 623.394C461.527 623.567 461.664 623.684 461.837 623.744C462.011 623.804 462.214 623.834 462.448 623.834C462.615 623.834 462.775 623.824 462.928 623.804C463.082 623.784 463.205 623.764 463.298 623.744L463.309 625.585C463.108 625.645 462.875 625.699 462.608 625.745C462.348 625.792 462.048 625.815 461.707 625.815C461.154 625.815 460.663 625.719 460.236 625.525C459.809 625.325 459.476 625.001 459.235 624.554C458.995 624.107 458.875 623.514 458.875 622.773V612.135ZM469.503 623.894C469.897 623.894 470.25 623.817 470.564 623.664C470.884 623.504 471.141 623.283 471.335 623.003C471.535 622.723 471.645 622.399 471.665 622.033H473.937C473.923 622.733 473.716 623.37 473.316 623.944C472.916 624.518 472.385 624.975 471.725 625.315C471.064 625.649 470.334 625.815 469.533 625.815C468.706 625.815 467.985 625.675 467.372 625.395C466.758 625.108 466.247 624.715 465.84 624.214C465.433 623.714 465.127 623.137 464.92 622.483C464.72 621.829 464.62 621.129 464.62 620.381V620.031C464.62 619.284 464.72 618.583 464.92 617.929C465.127 617.269 465.433 616.688 465.84 616.188C466.247 615.688 466.758 615.297 467.372 615.017C467.985 614.73 468.703 614.587 469.523 614.587C470.391 614.587 471.151 614.76 471.805 615.107C472.459 615.448 472.972 615.925 473.346 616.538C473.726 617.145 473.923 617.853 473.937 618.66H471.665C471.645 618.26 471.545 617.899 471.365 617.579C471.191 617.252 470.944 616.992 470.624 616.799C470.31 616.605 469.934 616.508 469.493 616.508C469.006 616.508 468.603 616.608 468.282 616.809C467.962 617.002 467.712 617.269 467.532 617.609C467.352 617.943 467.221 618.32 467.141 618.74C467.068 619.154 467.031 619.584 467.031 620.031V620.381C467.031 620.828 467.068 621.262 467.141 621.682C467.215 622.103 467.342 622.48 467.522 622.813C467.709 623.14 467.962 623.404 468.282 623.604C468.603 623.797 469.009 623.894 469.503 623.894ZM478.17 610.244V625.615H475.768V610.244H478.17ZM477.749 619.801L476.969 619.791C476.976 619.044 477.079 618.353 477.279 617.719C477.486 617.085 477.773 616.535 478.14 616.068C478.513 615.594 478.96 615.231 479.481 614.977C480.001 614.717 480.578 614.587 481.212 614.587C481.746 614.587 482.226 614.66 482.653 614.807C483.087 614.954 483.46 615.191 483.774 615.518C484.088 615.838 484.324 616.258 484.485 616.779C484.651 617.292 484.735 617.919 484.735 618.66V625.615H482.313V618.64C482.313 618.12 482.236 617.706 482.083 617.399C481.936 617.092 481.719 616.872 481.432 616.739C481.145 616.598 480.795 616.528 480.381 616.528C479.948 616.528 479.564 616.615 479.231 616.789C478.904 616.962 478.63 617.199 478.41 617.499C478.19 617.799 478.023 618.146 477.91 618.54C477.803 618.934 477.749 619.354 477.749 619.801Z" fill="#6E7272"/>
</g>
</g>
<g id="cancel-button">
<g id="Group 47">
<path id="Rectangle 214_2" d="M157.5 591.649C157.5 578.864 167.864 568.5 180.649 568.5H298.649C311.434 568.5 321.798 578.864 321.798 591.649V621.351C321.798 634.136 311.434 644.5 298.649 644.5H180.649C167.864 644.5 157.5 634.136 157.5 621.351V591.649Z" stroke="#A90033"/>
<path id="Cancel" d="M219.18 608.872H221.681C221.601 609.826 221.334 610.676 220.881 611.424C220.427 612.164 219.79 612.748 218.969 613.175C218.149 613.602 217.151 613.815 215.977 613.815C215.076 613.815 214.266 613.655 213.545 613.335C212.825 613.008 212.208 612.548 211.694 611.954C211.18 611.354 210.786 610.63 210.513 609.782C210.246 608.935 210.113 607.988 210.113 606.94V605.729C210.113 604.682 210.249 603.734 210.523 602.887C210.803 602.04 211.203 601.316 211.724 600.715C212.244 600.108 212.868 599.645 213.595 599.324C214.329 599.004 215.153 598.844 216.067 598.844C217.228 598.844 218.209 599.058 219.009 599.485C219.81 599.912 220.43 600.502 220.871 601.256C221.318 602.01 221.591 602.874 221.691 603.848H219.19C219.123 603.221 218.976 602.684 218.749 602.237C218.529 601.79 218.202 601.449 217.768 601.216C217.335 600.976 216.768 600.856 216.067 600.856C215.493 600.856 214.993 600.962 214.566 601.176C214.139 601.389 213.782 601.703 213.495 602.117C213.208 602.53 212.991 603.041 212.845 603.648C212.705 604.248 212.635 604.935 212.635 605.709V606.94C212.635 607.674 212.698 608.341 212.825 608.942C212.958 609.535 213.158 610.046 213.425 610.473C213.699 610.9 214.046 611.23 214.466 611.464C214.886 611.697 215.39 611.814 215.977 611.814C216.691 611.814 217.268 611.7 217.708 611.474C218.155 611.247 218.492 610.917 218.719 610.483C218.953 610.043 219.106 609.505 219.18 608.872ZM229.828 611.444V606.28C229.828 605.893 229.758 605.559 229.617 605.279C229.477 604.999 229.264 604.782 228.977 604.628C228.697 604.475 228.343 604.398 227.916 604.398C227.522 604.398 227.182 604.465 226.895 604.598C226.608 604.732 226.385 604.912 226.225 605.139C226.065 605.366 225.985 605.623 225.985 605.909H223.583C223.583 605.482 223.686 605.069 223.893 604.668C224.1 604.268 224.4 603.911 224.794 603.598C225.187 603.284 225.658 603.037 226.205 602.857C226.752 602.677 227.366 602.587 228.046 602.587C228.86 602.587 229.581 602.724 230.208 602.997C230.842 603.271 231.339 603.684 231.699 604.238C232.066 604.785 232.249 605.472 232.249 606.3V611.113C232.249 611.607 232.283 612.051 232.349 612.444C232.423 612.831 232.526 613.168 232.66 613.455V613.615H230.188C230.074 613.355 229.984 613.025 229.918 612.624C229.858 612.218 229.828 611.824 229.828 611.444ZM230.178 607.03L230.198 608.521H228.467C228.02 608.521 227.626 608.565 227.286 608.651C226.945 608.732 226.662 608.852 226.435 609.012C226.208 609.172 226.038 609.365 225.925 609.592C225.811 609.819 225.754 610.076 225.754 610.363C225.754 610.65 225.821 610.913 225.955 611.153C226.088 611.387 226.282 611.57 226.535 611.704C226.795 611.837 227.109 611.904 227.476 611.904C227.969 611.904 228.4 611.804 228.767 611.604C229.14 611.397 229.434 611.147 229.647 610.853C229.861 610.553 229.974 610.269 229.988 610.003L230.768 611.073C230.688 611.347 230.551 611.64 230.358 611.954C230.164 612.268 229.911 612.568 229.597 612.855C229.29 613.135 228.92 613.365 228.487 613.545C228.06 613.725 227.566 613.815 227.005 613.815C226.298 613.815 225.668 613.675 225.114 613.395C224.56 613.108 224.127 612.725 223.813 612.244C223.499 611.757 223.343 611.207 223.343 610.593C223.343 610.019 223.449 609.512 223.663 609.072C223.883 608.625 224.203 608.251 224.624 607.951C225.051 607.651 225.571 607.424 226.185 607.27C226.799 607.11 227.499 607.03 228.286 607.03H230.178ZM237.163 605.099V613.615H234.751V602.787H237.023L237.163 605.099ZM236.733 607.801L235.952 607.791C235.959 607.024 236.066 606.32 236.272 605.679C236.486 605.039 236.779 604.488 237.153 604.028C237.533 603.568 237.987 603.214 238.514 602.967C239.041 602.714 239.628 602.587 240.275 602.587C240.796 602.587 241.266 602.66 241.687 602.807C242.114 602.947 242.477 603.177 242.777 603.498C243.084 603.818 243.318 604.235 243.478 604.749C243.638 605.256 243.718 605.879 243.718 606.62V613.615H241.296V606.61C241.296 606.09 241.22 605.679 241.066 605.379C240.919 605.072 240.702 604.855 240.416 604.729C240.135 604.595 239.785 604.528 239.365 604.528C238.951 604.528 238.581 604.615 238.254 604.789C237.927 604.962 237.65 605.199 237.423 605.499C237.203 605.799 237.033 606.146 236.913 606.54C236.793 606.934 236.733 607.354 236.733 607.801ZM250.603 611.894C250.997 611.894 251.35 611.817 251.664 611.664C251.984 611.504 252.241 611.283 252.435 611.003C252.635 610.723 252.745 610.399 252.765 610.033H255.037C255.023 610.733 254.816 611.37 254.416 611.944C254.016 612.518 253.485 612.975 252.825 613.315C252.164 613.649 251.434 613.815 250.633 613.815C249.806 613.815 249.085 613.675 248.472 613.395C247.858 613.108 247.347 612.715 246.94 612.214C246.534 611.714 246.227 611.137 246.02 610.483C245.82 609.829 245.72 609.129 245.72 608.381V608.031C245.72 607.284 245.82 606.583 246.02 605.929C246.227 605.269 246.534 604.688 246.94 604.188C247.347 603.688 247.858 603.297 248.472 603.017C249.085 602.73 249.803 602.587 250.623 602.587C251.491 602.587 252.251 602.76 252.905 603.107C253.559 603.448 254.073 603.925 254.446 604.538C254.826 605.145 255.023 605.853 255.037 606.66H252.765C252.745 606.26 252.645 605.899 252.465 605.579C252.291 605.252 252.044 604.992 251.724 604.799C251.411 604.605 251.034 604.508 250.593 604.508C250.106 604.508 249.703 604.608 249.382 604.809C249.062 605.002 248.812 605.269 248.632 605.609C248.452 605.943 248.322 606.32 248.241 606.74C248.168 607.154 248.131 607.584 248.131 608.031V608.381C248.131 608.828 248.168 609.262 248.241 609.682C248.315 610.103 248.442 610.48 248.622 610.813C248.809 611.14 249.062 611.404 249.382 611.604C249.703 611.797 250.11 611.894 250.603 611.894ZM261.662 613.815C260.861 613.815 260.137 613.685 259.49 613.425C258.85 613.158 258.302 612.788 257.849 612.314C257.402 611.841 257.058 611.283 256.818 610.643C256.578 610.003 256.458 609.312 256.458 608.571V608.171C256.458 607.324 256.581 606.557 256.828 605.869C257.075 605.182 257.418 604.595 257.859 604.108C258.299 603.614 258.819 603.237 259.42 602.977C260.02 602.717 260.671 602.587 261.371 602.587C262.145 602.587 262.823 602.717 263.403 602.977C263.983 603.237 264.464 603.604 264.844 604.078C265.231 604.545 265.518 605.102 265.705 605.749C265.898 606.396 265.995 607.11 265.995 607.891V608.922H257.629V607.19H263.613V607C263.6 606.567 263.513 606.16 263.353 605.779C263.199 605.399 262.963 605.092 262.642 604.859C262.322 604.625 261.895 604.508 261.361 604.508C260.961 604.508 260.604 604.595 260.291 604.769C259.984 604.935 259.727 605.179 259.52 605.499C259.313 605.819 259.153 606.206 259.04 606.66C258.933 607.107 258.88 607.611 258.88 608.171V608.571C258.88 609.045 258.943 609.485 259.07 609.892C259.203 610.293 259.397 610.643 259.65 610.943C259.904 611.243 260.211 611.48 260.571 611.654C260.931 611.821 261.341 611.904 261.802 611.904C262.382 611.904 262.899 611.787 263.353 611.554C263.807 611.32 264.2 610.99 264.534 610.563L265.805 611.794C265.571 612.134 265.268 612.461 264.894 612.775C264.52 613.081 264.063 613.332 263.523 613.525C262.989 613.719 262.369 613.815 261.662 613.815ZM270.458 598.244V613.615H268.036V598.244H270.458Z" fill="#A90033"/>
</g>
</g>
<g id="Group 133">
<path id="warehouse" d="M67 343.09C67 330.029 77.5879 319.441 90.6486 319.441H576.234C589.295 319.441 599.883 330.029 599.883 343.09V343.721C599.883 356.781 589.295 367.369 576.234 367.369H90.6486C77.5879 367.369 67 356.781 67 343.721V343.09Z" fill="#F9F9F9"/>
<path id="Warehouse" d="M103.27 308.979L105.949 298.55H107.354L107.197 301.238L104.333 312H102.873L103.27 308.979ZM101.266 298.55L103.437 308.896L103.631 312H102.079L98.9657 298.55H101.266ZM110.393 308.868L112.536 298.55H114.845L111.732 312H110.18L110.393 308.868ZM107.899 298.55L110.55 309.007L110.938 312H109.478L106.661 301.238L106.513 298.55H107.899ZM121.663 309.995V305.229C121.663 304.872 121.598 304.564 121.469 304.305C121.34 304.046 121.142 303.846 120.878 303.704C120.619 303.563 120.293 303.492 119.898 303.492C119.535 303.492 119.221 303.554 118.956 303.677C118.691 303.8 118.485 303.966 118.337 304.176C118.189 304.385 118.116 304.622 118.116 304.887H115.898C115.898 304.493 115.994 304.111 116.185 303.741C116.376 303.372 116.653 303.042 117.016 302.753C117.38 302.464 117.814 302.236 118.319 302.069C118.824 301.903 119.39 301.82 120.019 301.82C120.77 301.82 121.435 301.946 122.014 302.199C122.599 302.451 123.058 302.833 123.39 303.344C123.729 303.849 123.898 304.484 123.898 305.247V309.691C123.898 310.146 123.929 310.556 123.991 310.919C124.058 311.276 124.154 311.587 124.277 311.852V312H121.995C121.891 311.76 121.808 311.455 121.746 311.085C121.691 310.71 121.663 310.346 121.663 309.995ZM121.986 305.922L122.005 307.298H120.406C119.994 307.298 119.631 307.338 119.316 307.418C119.002 307.492 118.741 307.603 118.531 307.751C118.322 307.898 118.165 308.077 118.06 308.286C117.955 308.496 117.903 308.733 117.903 308.998C117.903 309.263 117.965 309.506 118.088 309.728C118.211 309.943 118.39 310.112 118.624 310.236C118.864 310.359 119.153 310.42 119.492 310.42C119.948 310.42 120.345 310.328 120.684 310.143C121.029 309.952 121.299 309.721 121.497 309.45C121.694 309.173 121.798 308.912 121.811 308.665L122.531 309.654C122.457 309.906 122.331 310.177 122.152 310.467C121.974 310.756 121.74 311.033 121.45 311.298C121.167 311.557 120.825 311.769 120.425 311.935C120.031 312.102 119.575 312.185 119.058 312.185C118.405 312.185 117.823 312.055 117.312 311.797C116.801 311.532 116.4 311.178 116.111 310.734C115.821 310.285 115.677 309.777 115.677 309.21C115.677 308.681 115.775 308.213 115.972 307.806C116.176 307.393 116.471 307.049 116.859 306.771C117.253 306.494 117.734 306.285 118.3 306.143C118.867 305.995 119.514 305.922 120.24 305.922H121.986ZM128.462 303.908V312H126.236V302.005H128.36L128.462 303.908ZM131.52 301.94L131.501 304.009C131.366 303.985 131.218 303.966 131.058 303.954C130.904 303.942 130.75 303.935 130.596 303.935C130.214 303.935 129.878 303.991 129.589 304.102C129.299 304.206 129.056 304.36 128.859 304.564C128.668 304.761 128.52 305.001 128.416 305.284C128.311 305.567 128.249 305.885 128.231 306.236L127.723 306.273C127.723 305.644 127.784 305.062 127.908 304.527C128.031 303.991 128.215 303.52 128.462 303.113C128.714 302.707 129.028 302.39 129.404 302.162C129.786 301.934 130.226 301.82 130.725 301.82C130.861 301.82 131.005 301.832 131.159 301.857C131.319 301.882 131.439 301.909 131.52 301.94ZM137.136 312.185C136.397 312.185 135.729 312.065 135.131 311.824C134.54 311.578 134.035 311.236 133.616 310.799C133.204 310.362 132.887 309.848 132.665 309.256C132.443 308.665 132.332 308.028 132.332 307.344V306.975C132.332 306.193 132.446 305.484 132.674 304.85C132.902 304.216 133.219 303.674 133.626 303.224C134.032 302.768 134.513 302.42 135.067 302.18C135.621 301.94 136.222 301.82 136.868 301.82C137.583 301.82 138.208 301.94 138.743 302.18C139.279 302.42 139.723 302.759 140.074 303.196C140.431 303.628 140.696 304.142 140.868 304.739C141.047 305.337 141.136 305.995 141.136 306.716V307.667H133.413V306.069H138.937V305.894C138.925 305.494 138.845 305.118 138.697 304.767C138.556 304.416 138.337 304.133 138.041 303.917C137.746 303.701 137.352 303.594 136.859 303.594C136.489 303.594 136.16 303.674 135.87 303.834C135.587 303.988 135.35 304.213 135.159 304.508C134.968 304.804 134.82 305.161 134.716 305.58C134.617 305.992 134.568 306.457 134.568 306.975V307.344C134.568 307.781 134.626 308.188 134.743 308.564C134.867 308.933 135.045 309.256 135.279 309.534C135.513 309.811 135.797 310.029 136.129 310.189C136.462 310.343 136.84 310.42 137.265 310.42C137.801 310.42 138.278 310.313 138.697 310.097C139.116 309.881 139.479 309.577 139.787 309.182L140.96 310.319C140.745 310.633 140.465 310.935 140.12 311.224C139.775 311.507 139.353 311.738 138.854 311.917C138.362 312.095 137.789 312.185 137.136 312.185ZM145.071 297.811V312H142.854V297.811H145.071ZM144.683 306.633L143.963 306.624C143.969 305.934 144.064 305.296 144.249 304.711C144.44 304.126 144.705 303.618 145.044 303.187C145.388 302.75 145.801 302.414 146.281 302.18C146.762 301.94 147.295 301.82 147.88 301.82C148.372 301.82 148.816 301.888 149.21 302.023C149.61 302.159 149.955 302.377 150.244 302.679C150.534 302.975 150.753 303.363 150.9 303.843C151.054 304.317 151.131 304.896 151.131 305.58V312H148.896V305.561C148.896 305.081 148.825 304.699 148.683 304.416C148.548 304.133 148.348 303.929 148.083 303.806C147.818 303.677 147.495 303.612 147.113 303.612C146.713 303.612 146.358 303.692 146.05 303.852C145.749 304.012 145.496 304.231 145.293 304.508C145.09 304.785 144.936 305.106 144.831 305.469C144.733 305.832 144.683 306.22 144.683 306.633ZM152.96 307.113V306.901C152.96 306.18 153.065 305.512 153.274 304.896C153.484 304.274 153.786 303.735 154.18 303.28C154.58 302.818 155.067 302.46 155.639 302.208C156.218 301.949 156.871 301.82 157.598 301.82C158.331 301.82 158.983 301.949 159.556 302.208C160.135 302.46 160.625 302.818 161.025 303.28C161.425 303.735 161.73 304.274 161.939 304.896C162.149 305.512 162.254 306.18 162.254 306.901V307.113C162.254 307.834 162.149 308.502 161.939 309.118C161.73 309.734 161.425 310.273 161.025 310.734C160.625 311.19 160.138 311.547 159.565 311.806C158.993 312.059 158.343 312.185 157.616 312.185C156.883 312.185 156.227 312.059 155.649 311.806C155.076 311.547 154.589 311.19 154.189 310.734C153.789 310.273 153.484 309.734 153.274 309.118C153.065 308.502 152.96 307.834 152.96 307.113ZM155.187 306.901V307.113C155.187 307.563 155.233 307.988 155.325 308.388C155.418 308.788 155.562 309.139 155.759 309.441C155.956 309.743 156.209 309.98 156.517 310.152C156.825 310.325 157.191 310.411 157.616 310.411C158.029 310.411 158.386 310.325 158.688 310.152C158.996 309.98 159.248 309.743 159.445 309.441C159.642 309.139 159.787 308.788 159.879 308.388C159.978 307.988 160.027 307.563 160.027 307.113V306.901C160.027 306.457 159.978 306.039 159.879 305.644C159.787 305.244 159.639 304.89 159.436 304.582C159.239 304.274 158.986 304.034 158.679 303.862C158.377 303.683 158.016 303.594 157.598 303.594C157.179 303.594 156.816 303.683 156.508 303.862C156.206 304.034 155.956 304.274 155.759 304.582C155.562 304.89 155.418 305.244 155.325 305.644C155.233 306.039 155.187 306.457 155.187 306.901ZM170.133 309.644V302.005H172.369V312H170.263L170.133 309.644ZM170.447 307.566L171.196 307.547C171.196 308.219 171.122 308.838 170.974 309.404C170.826 309.965 170.598 310.454 170.29 310.873C169.982 311.286 169.588 311.609 169.108 311.843C168.628 312.071 168.052 312.185 167.38 312.185C166.894 312.185 166.447 312.114 166.041 311.972C165.635 311.831 165.283 311.612 164.988 311.316C164.698 311.021 164.474 310.636 164.314 310.162C164.153 309.687 164.073 309.121 164.073 308.462V302.005H166.3V308.48C166.3 308.844 166.343 309.149 166.429 309.395C166.515 309.635 166.632 309.829 166.78 309.977C166.928 310.125 167.1 310.229 167.297 310.291C167.494 310.353 167.704 310.383 167.925 310.383C168.56 310.383 169.059 310.26 169.422 310.014C169.792 309.761 170.053 309.423 170.207 308.998C170.367 308.573 170.447 308.096 170.447 307.566ZM180.258 309.293C180.258 309.072 180.202 308.871 180.092 308.693C179.981 308.508 179.768 308.342 179.454 308.194C179.146 308.046 178.691 307.911 178.087 307.788C177.557 307.671 177.071 307.532 176.627 307.372C176.19 307.206 175.815 307.005 175.5 306.771C175.186 306.537 174.943 306.26 174.771 305.94C174.598 305.62 174.512 305.25 174.512 304.832C174.512 304.425 174.601 304.04 174.78 303.677C174.959 303.313 175.214 302.993 175.547 302.716C175.879 302.439 176.283 302.22 176.757 302.06C177.237 301.9 177.773 301.82 178.364 301.82C179.202 301.82 179.919 301.962 180.517 302.245C181.12 302.522 181.582 302.901 181.902 303.381C182.222 303.855 182.383 304.391 182.383 304.989H180.156C180.156 304.724 180.089 304.477 179.953 304.25C179.824 304.016 179.627 303.828 179.362 303.686C179.097 303.538 178.764 303.464 178.364 303.464C177.982 303.464 177.665 303.526 177.413 303.649C177.166 303.766 176.982 303.92 176.858 304.111C176.741 304.302 176.683 304.511 176.683 304.739C176.683 304.905 176.714 305.056 176.775 305.192C176.843 305.321 176.954 305.441 177.108 305.552C177.262 305.657 177.471 305.755 177.736 305.848C178.007 305.94 178.346 306.029 178.752 306.116C179.516 306.276 180.172 306.482 180.72 306.734C181.274 306.981 181.699 307.301 181.995 307.695C182.29 308.083 182.438 308.576 182.438 309.173C182.438 309.617 182.343 310.023 182.152 310.393C181.967 310.756 181.696 311.073 181.339 311.344C180.982 311.609 180.554 311.815 180.055 311.963C179.562 312.111 179.008 312.185 178.392 312.185C177.487 312.185 176.72 312.025 176.092 311.704C175.464 311.378 174.986 310.962 174.66 310.457C174.34 309.946 174.179 309.417 174.179 308.868H176.332C176.356 309.281 176.47 309.611 176.674 309.857C176.883 310.097 177.142 310.273 177.45 310.383C177.764 310.488 178.087 310.54 178.42 310.54C178.82 310.54 179.156 310.488 179.426 310.383C179.697 310.273 179.904 310.125 180.045 309.94C180.187 309.749 180.258 309.534 180.258 309.293ZM188.794 312.185C188.055 312.185 187.386 312.065 186.789 311.824C186.198 311.578 185.693 311.236 185.274 310.799C184.861 310.362 184.544 309.848 184.323 309.256C184.101 308.665 183.99 308.028 183.99 307.344V306.975C183.99 306.193 184.104 305.484 184.332 304.85C184.56 304.216 184.877 303.674 185.283 303.224C185.69 302.768 186.17 302.42 186.724 302.18C187.279 301.94 187.879 301.82 188.526 301.82C189.24 301.82 189.865 301.94 190.401 302.18C190.937 302.42 191.38 302.759 191.731 303.196C192.088 303.628 192.353 304.142 192.526 304.739C192.704 305.337 192.794 305.995 192.794 306.716V307.667H185.071V306.069H190.595V305.894C190.583 305.494 190.503 305.118 190.355 304.767C190.213 304.416 189.994 304.133 189.699 303.917C189.403 303.701 189.009 303.594 188.516 303.594C188.147 303.594 187.817 303.674 187.528 303.834C187.245 303.988 187.008 304.213 186.817 304.508C186.626 304.804 186.478 305.161 186.373 305.58C186.275 305.992 186.225 306.457 186.225 306.975V307.344C186.225 307.781 186.284 308.188 186.401 308.564C186.524 308.933 186.703 309.256 186.937 309.534C187.171 309.811 187.454 310.029 187.787 310.189C188.119 310.343 188.498 310.42 188.923 310.42C189.459 310.42 189.936 310.313 190.355 310.097C190.774 309.881 191.137 309.577 191.445 309.182L192.618 310.319C192.402 310.633 192.122 310.935 191.777 311.224C191.432 311.507 191.011 311.738 190.512 311.917C190.019 312.095 189.446 312.185 188.794 312.185Z" fill="#F9F9F9"/>
</g>
<g id="Group 163">
<path id="date" d="M67 456.09C67 443.029 77.5879 432.441 90.6486 432.441H576.234C589.295 432.441 599.883 443.029 599.883 456.09V456.721C599.883 469.781 589.295 480.369 576.234 480.369H90.6486C77.5879 480.369 67 469.781 67 456.721V456.09Z" fill="#F9F9F9"/>
<path id="Date Added" d="M103.806 425H100.933L100.952 423.162H103.806C104.638 423.162 105.334 422.98 105.894 422.617C106.461 422.253 106.886 421.733 107.169 421.055C107.458 420.378 107.603 419.571 107.603 418.635V417.905C107.603 417.179 107.52 416.535 107.354 415.975C107.193 415.414 106.953 414.943 106.633 414.561C106.319 414.18 105.931 413.89 105.469 413.693C105.013 413.496 104.487 413.397 103.889 413.397H100.878V411.55H103.889C104.782 411.55 105.598 411.701 106.337 412.002C107.076 412.298 107.714 412.726 108.25 413.287C108.792 413.847 109.207 414.518 109.497 415.3C109.786 416.082 109.931 416.957 109.931 417.924V418.635C109.931 419.602 109.786 420.477 109.497 421.259C109.207 422.041 108.792 422.712 108.25 423.273C107.708 423.827 107.061 424.255 106.31 424.557C105.565 424.852 104.73 425 103.806 425ZM102.217 411.55V425H99.8987V411.55H102.217ZM117.672 422.995V418.229C117.672 417.872 117.607 417.564 117.478 417.305C117.349 417.046 117.152 416.846 116.887 416.704C116.628 416.563 116.302 416.492 115.908 416.492C115.544 416.492 115.23 416.554 114.965 416.677C114.701 416.8 114.494 416.966 114.347 417.176C114.199 417.385 114.125 417.622 114.125 417.887H111.908C111.908 417.493 112.003 417.111 112.194 416.741C112.385 416.372 112.662 416.042 113.026 415.753C113.389 415.464 113.823 415.236 114.328 415.069C114.833 414.903 115.4 414.82 116.028 414.82C116.779 414.82 117.444 414.946 118.023 415.199C118.608 415.451 119.067 415.833 119.4 416.344C119.738 416.849 119.908 417.484 119.908 418.247V422.691C119.908 423.146 119.938 423.556 120 423.919C120.068 424.276 120.163 424.587 120.286 424.852V425H118.005C117.9 424.76 117.817 424.455 117.755 424.085C117.7 423.71 117.672 423.346 117.672 422.995ZM117.995 418.922L118.014 420.298H116.416C116.003 420.298 115.64 420.338 115.326 420.418C115.012 420.492 114.75 420.603 114.541 420.751C114.331 420.898 114.174 421.077 114.069 421.286C113.965 421.496 113.912 421.733 113.912 421.998C113.912 422.263 113.974 422.506 114.097 422.728C114.22 422.943 114.399 423.112 114.633 423.236C114.873 423.359 115.163 423.42 115.501 423.42C115.957 423.42 116.354 423.328 116.693 423.143C117.038 422.952 117.309 422.721 117.506 422.45C117.703 422.173 117.808 421.912 117.82 421.665L118.54 422.654C118.467 422.906 118.34 423.177 118.162 423.467C117.983 423.756 117.749 424.033 117.46 424.298C117.176 424.557 116.835 424.769 116.434 424.935C116.04 425.102 115.584 425.185 115.067 425.185C114.414 425.185 113.832 425.055 113.321 424.797C112.81 424.532 112.41 424.178 112.12 423.734C111.831 423.285 111.686 422.777 111.686 422.21C111.686 421.681 111.785 421.213 111.982 420.806C112.185 420.393 112.481 420.049 112.868 419.771C113.263 419.494 113.743 419.285 114.31 419.143C114.876 418.995 115.523 418.922 116.25 418.922H117.995ZM126.817 415.005V416.631H121.182V415.005H126.817ZM122.808 412.557H125.035V422.238C125.035 422.546 125.078 422.783 125.164 422.949C125.256 423.109 125.383 423.217 125.543 423.273C125.703 423.328 125.891 423.356 126.106 423.356C126.26 423.356 126.408 423.346 126.55 423.328C126.691 423.309 126.805 423.291 126.891 423.273L126.901 424.972C126.716 425.028 126.5 425.077 126.254 425.12C126.014 425.163 125.737 425.185 125.423 425.185C124.911 425.185 124.459 425.095 124.065 424.917C123.671 424.732 123.363 424.433 123.141 424.021C122.919 423.608 122.808 423.06 122.808 422.376V412.557ZM132.942 425.185C132.203 425.185 131.535 425.065 130.938 424.824C130.346 424.578 129.841 424.236 129.423 423.799C129.01 423.362 128.693 422.848 128.471 422.256C128.249 421.665 128.138 421.028 128.138 420.344V419.975C128.138 419.193 128.252 418.484 128.48 417.85C128.708 417.216 129.025 416.674 129.432 416.224C129.838 415.768 130.319 415.42 130.873 415.18C131.427 414.94 132.028 414.82 132.674 414.82C133.389 414.82 134.014 414.94 134.549 415.18C135.085 415.42 135.529 415.759 135.88 416.196C136.237 416.628 136.502 417.142 136.674 417.739C136.853 418.337 136.942 418.995 136.942 419.716V420.667H129.219V419.069H134.743V418.894C134.731 418.494 134.651 418.118 134.503 417.767C134.362 417.416 134.143 417.133 133.847 416.917C133.552 416.701 133.158 416.594 132.665 416.594C132.295 416.594 131.966 416.674 131.677 416.834C131.393 416.988 131.156 417.213 130.965 417.508C130.774 417.804 130.627 418.161 130.522 418.58C130.423 418.992 130.374 419.457 130.374 419.975V420.344C130.374 420.781 130.433 421.188 130.55 421.564C130.673 421.933 130.851 422.256 131.085 422.534C131.319 422.811 131.603 423.029 131.935 423.189C132.268 423.343 132.647 423.42 133.071 423.42C133.607 423.42 134.085 423.313 134.503 423.097C134.922 422.881 135.285 422.577 135.593 422.182L136.767 423.319C136.551 423.633 136.271 423.935 135.926 424.224C135.581 424.507 135.159 424.738 134.66 424.917C134.168 425.095 133.595 425.185 132.942 425.185ZM148.85 413.342L144.831 425H142.402L147.464 411.55H149.016L148.85 413.342ZM152.212 425L148.184 413.342L148.009 411.55H149.57L154.651 425H152.212ZM152.018 420.012V421.85H144.702V420.012H152.018ZM162.032 422.931V410.811H164.267V425H162.244L162.032 422.931ZM155.528 420.113V419.919C155.528 419.162 155.618 418.472 155.796 417.85C155.975 417.222 156.234 416.683 156.572 416.233C156.911 415.778 157.324 415.43 157.81 415.19C158.297 414.943 158.845 414.82 159.454 414.82C160.058 414.82 160.588 414.937 161.043 415.171C161.499 415.405 161.887 415.741 162.207 416.178C162.528 416.609 162.783 417.126 162.974 417.73C163.165 418.327 163.3 418.992 163.381 419.725V420.344C163.3 421.059 163.165 421.711 162.974 422.303C162.783 422.894 162.528 423.405 162.207 423.836C161.887 424.267 161.496 424.6 161.034 424.834C160.578 425.068 160.046 425.185 159.436 425.185C158.832 425.185 158.287 425.059 157.801 424.806C157.321 424.554 156.911 424.199 156.572 423.744C156.234 423.288 155.975 422.752 155.796 422.136C155.618 421.514 155.528 420.84 155.528 420.113ZM157.755 419.919V420.113C157.755 420.569 157.795 420.994 157.875 421.388C157.961 421.782 158.093 422.13 158.272 422.432C158.451 422.728 158.682 422.962 158.965 423.134C159.254 423.3 159.599 423.383 160 423.383C160.504 423.383 160.92 423.273 161.247 423.051C161.573 422.829 161.829 422.53 162.013 422.155C162.204 421.773 162.334 421.348 162.401 420.88V419.208C162.364 418.845 162.287 418.506 162.17 418.192C162.06 417.878 161.909 417.604 161.718 417.37C161.527 417.129 161.29 416.945 161.006 416.815C160.729 416.68 160.4 416.612 160.018 416.612C159.612 416.612 159.267 416.698 158.983 416.871C158.7 417.043 158.466 417.28 158.281 417.582C158.103 417.884 157.97 418.235 157.884 418.635C157.798 419.035 157.755 419.464 157.755 419.919ZM172.692 422.931V410.811H174.928V425H172.905L172.692 422.931ZM166.189 420.113V419.919C166.189 419.162 166.278 418.472 166.457 417.85C166.635 417.222 166.894 416.683 167.233 416.233C167.571 415.778 167.984 415.43 168.471 415.19C168.957 414.943 169.505 414.82 170.115 414.82C170.718 414.82 171.248 414.937 171.704 415.171C172.159 415.405 172.547 415.741 172.868 416.178C173.188 416.609 173.444 417.126 173.634 417.73C173.825 418.327 173.961 418.992 174.041 419.725V420.344C173.961 421.059 173.825 421.711 173.634 422.303C173.444 422.894 173.188 423.405 172.868 423.836C172.547 424.267 172.156 424.6 171.694 424.834C171.239 425.068 170.706 425.185 170.096 425.185C169.493 425.185 168.948 425.059 168.461 424.806C167.981 424.554 167.571 424.199 167.233 423.744C166.894 423.288 166.635 422.752 166.457 422.136C166.278 421.514 166.189 420.84 166.189 420.113ZM168.415 419.919V420.113C168.415 420.569 168.455 420.994 168.535 421.388C168.621 421.782 168.754 422.13 168.932 422.432C169.111 422.728 169.342 422.962 169.625 423.134C169.915 423.3 170.26 423.383 170.66 423.383C171.165 423.383 171.581 423.273 171.907 423.051C172.233 422.829 172.489 422.53 172.674 422.155C172.865 421.773 172.994 421.348 173.062 420.88V419.208C173.025 418.845 172.948 418.506 172.831 418.192C172.72 417.878 172.569 417.604 172.378 417.37C172.187 417.129 171.95 416.945 171.667 416.815C171.39 416.68 171.06 416.612 170.678 416.612C170.272 416.612 169.927 416.698 169.644 416.871C169.36 417.043 169.126 417.28 168.942 417.582C168.763 417.884 168.631 418.235 168.544 418.635C168.458 419.035 168.415 419.464 168.415 419.919ZM181.662 425.185C180.923 425.185 180.255 425.065 179.657 424.824C179.066 424.578 178.561 424.236 178.142 423.799C177.73 423.362 177.413 422.848 177.191 422.256C176.969 421.665 176.858 421.028 176.858 420.344V419.975C176.858 419.193 176.972 418.484 177.2 417.85C177.428 417.216 177.745 416.674 178.152 416.224C178.558 415.768 179.039 415.42 179.593 415.18C180.147 414.94 180.747 414.82 181.394 414.82C182.109 414.82 182.734 414.94 183.269 415.18C183.805 415.42 184.249 415.759 184.6 416.196C184.957 416.628 185.222 417.142 185.394 417.739C185.573 418.337 185.662 418.995 185.662 419.716V420.667H177.939V419.069H183.463V418.894C183.451 418.494 183.371 418.118 183.223 417.767C183.082 417.416 182.863 417.133 182.567 416.917C182.272 416.701 181.878 416.594 181.385 416.594C181.015 416.594 180.686 416.674 180.396 416.834C180.113 416.988 179.876 417.213 179.685 417.508C179.494 417.804 179.346 418.161 179.242 418.58C179.143 418.992 179.094 419.457 179.094 419.975V420.344C179.094 420.781 179.152 421.188 179.269 421.564C179.393 421.933 179.571 422.256 179.805 422.534C180.039 422.811 180.323 423.029 180.655 423.189C180.988 423.343 181.366 423.42 181.791 423.42C182.327 423.42 182.804 423.313 183.223 423.097C183.642 422.881 184.005 422.577 184.313 422.182L185.486 423.319C185.271 423.633 184.991 423.935 184.646 424.224C184.301 424.507 183.879 424.738 183.38 424.917C182.888 425.095 182.315 425.185 181.662 425.185ZM193.496 422.931V410.811H195.731V425H193.708L193.496 422.931ZM186.992 420.113V419.919C186.992 419.162 187.082 418.472 187.26 417.85C187.439 417.222 187.697 416.683 188.036 416.233C188.375 415.778 188.787 415.43 189.274 415.19C189.76 414.943 190.309 414.82 190.918 414.82C191.522 414.82 192.051 414.937 192.507 415.171C192.963 415.405 193.351 415.741 193.671 416.178C193.991 416.609 194.247 417.126 194.438 417.73C194.629 418.327 194.764 418.992 194.844 419.725V420.344C194.764 421.059 194.629 421.711 194.438 422.303C194.247 422.894 193.991 423.405 193.671 423.836C193.351 424.267 192.96 424.6 192.498 424.834C192.042 425.068 191.509 425.185 190.9 425.185C190.296 425.185 189.751 425.059 189.265 424.806C188.784 424.554 188.375 424.199 188.036 423.744C187.697 423.288 187.439 422.752 187.26 422.136C187.082 421.514 186.992 420.84 186.992 420.113ZM189.219 419.919V420.113C189.219 420.569 189.259 420.994 189.339 421.388C189.425 421.782 189.557 422.13 189.736 422.432C189.914 422.728 190.145 422.962 190.429 423.134C190.718 423.3 191.063 423.383 191.463 423.383C191.968 423.383 192.384 423.273 192.71 423.051C193.037 422.829 193.292 422.53 193.477 422.155C193.668 421.773 193.797 421.348 193.865 420.88V419.208C193.828 418.845 193.751 418.506 193.634 418.192C193.523 417.878 193.372 417.604 193.182 417.37C192.991 417.129 192.753 416.945 192.47 416.815C192.193 416.68 191.864 416.612 191.482 416.612C191.075 416.612 190.73 416.698 190.447 416.871C190.164 417.043 189.93 417.28 189.745 417.582C189.566 417.884 189.434 418.235 189.348 418.635C189.262 419.035 189.219 419.464 189.219 419.919Z" fill="#F9F9F9"/>
</g>
<g id="Group 162">
<path id="quantity" d="M251 230.5C251 217.521 261.521 207 274.5 207H385.5C398.479 207 409 217.521 409 230.5C409 243.479 398.479 254 385.5 254H274.5C261.521 254 251 243.479 251 230.5Z" fill="#F9F9F9"/>
<path id="Quantity" d="M302.818 195.208L306.356 198.016L304.85 199.337L301.377 196.557L302.818 195.208ZM306.383 189.905V190.644C306.383 191.661 306.251 192.572 305.986 193.379C305.721 194.186 305.343 194.872 304.85 195.439C304.357 196.005 303.769 196.44 303.086 196.741C302.402 197.037 301.644 197.185 300.813 197.185C299.988 197.185 299.233 197.037 298.55 196.741C297.872 196.44 297.284 196.005 296.785 195.439C296.287 194.872 295.899 194.186 295.621 193.379C295.35 192.572 295.215 191.661 295.215 190.644V189.905C295.215 188.889 295.35 187.981 295.621 187.18C295.892 186.374 296.274 185.687 296.767 185.12C297.266 184.548 297.854 184.113 298.531 183.818C299.215 183.516 299.969 183.365 300.795 183.365C301.626 183.365 302.383 183.516 303.067 183.818C303.757 184.113 304.348 184.548 304.841 185.12C305.333 185.687 305.712 186.374 305.977 187.18C306.248 187.981 306.383 188.889 306.383 189.905ZM304.055 190.644V189.887C304.055 189.136 303.982 188.474 303.834 187.901C303.692 187.322 303.48 186.838 303.196 186.45C302.919 186.056 302.577 185.761 302.171 185.564C301.771 185.36 301.312 185.259 300.795 185.259C300.29 185.259 299.837 185.36 299.437 185.564C299.036 185.761 298.695 186.056 298.411 186.45C298.128 186.838 297.912 187.322 297.765 187.901C297.617 188.474 297.543 189.136 297.543 189.887V190.644C297.543 191.396 297.617 192.061 297.765 192.64C297.912 193.219 298.128 193.708 298.411 194.109C298.701 194.503 299.046 194.801 299.446 195.005C299.852 195.202 300.308 195.3 300.813 195.3C301.33 195.3 301.789 195.202 302.189 195.005C302.59 194.801 302.928 194.503 303.206 194.109C303.483 193.708 303.692 193.219 303.834 192.64C303.982 192.061 304.055 191.396 304.055 190.644ZM314.531 194.644V187.005H316.767V197H314.66L314.531 194.644ZM314.845 192.566L315.593 192.547C315.593 193.219 315.52 193.838 315.372 194.404C315.224 194.965 314.996 195.454 314.688 195.873C314.38 196.286 313.986 196.609 313.506 196.843C313.025 197.071 312.45 197.185 311.778 197.185C311.292 197.185 310.845 197.114 310.439 196.972C310.032 196.831 309.681 196.612 309.386 196.316C309.096 196.021 308.871 195.636 308.711 195.162C308.551 194.687 308.471 194.121 308.471 193.462V187.005H310.697V193.48C310.697 193.844 310.741 194.149 310.827 194.395C310.913 194.635 311.03 194.829 311.178 194.977C311.326 195.125 311.498 195.229 311.695 195.291C311.892 195.353 312.102 195.383 312.323 195.383C312.958 195.383 313.456 195.26 313.82 195.014C314.189 194.761 314.451 194.423 314.605 193.998C314.765 193.573 314.845 193.096 314.845 192.566ZM324.683 194.995V190.229C324.683 189.872 324.619 189.564 324.489 189.305C324.36 189.046 324.163 188.846 323.898 188.704C323.64 188.563 323.313 188.492 322.919 188.492C322.556 188.492 322.242 188.554 321.977 188.677C321.712 188.8 321.506 188.966 321.358 189.176C321.21 189.385 321.136 189.622 321.136 189.887H318.919C318.919 189.493 319.014 189.111 319.205 188.741C319.396 188.372 319.673 188.042 320.037 187.753C320.4 187.464 320.834 187.236 321.339 187.069C321.844 186.903 322.411 186.82 323.039 186.82C323.79 186.82 324.456 186.946 325.034 187.199C325.619 187.451 326.078 187.833 326.411 188.344C326.75 188.849 326.919 189.484 326.919 190.247V194.691C326.919 195.146 326.95 195.556 327.011 195.919C327.079 196.276 327.175 196.587 327.298 196.852V197H325.016C324.911 196.76 324.828 196.455 324.767 196.085C324.711 195.71 324.683 195.346 324.683 194.995ZM325.007 190.922L325.025 192.298H323.427C323.014 192.298 322.651 192.338 322.337 192.418C322.023 192.492 321.761 192.603 321.552 192.751C321.342 192.898 321.185 193.077 321.081 193.286C320.976 193.496 320.924 193.733 320.924 193.998C320.924 194.263 320.985 194.506 321.108 194.728C321.232 194.943 321.41 195.112 321.644 195.236C321.884 195.359 322.174 195.42 322.513 195.42C322.968 195.42 323.365 195.328 323.704 195.143C324.049 194.952 324.32 194.721 324.517 194.45C324.714 194.173 324.819 193.912 324.831 193.665L325.552 194.654C325.478 194.906 325.352 195.177 325.173 195.467C324.994 195.756 324.76 196.033 324.471 196.298C324.188 196.557 323.846 196.769 323.446 196.935C323.051 197.102 322.596 197.185 322.078 197.185C321.426 197.185 320.844 197.055 320.332 196.797C319.821 196.532 319.421 196.178 319.132 195.734C318.842 195.285 318.697 194.777 318.697 194.21C318.697 193.681 318.796 193.213 318.993 192.806C319.196 192.393 319.492 192.049 319.88 191.771C320.274 191.494 320.754 191.285 321.321 191.143C321.887 190.995 322.534 190.922 323.261 190.922H325.007ZM331.455 189.139V197H329.228V187.005H331.325L331.455 189.139ZM331.057 191.633L330.337 191.624C330.343 190.915 330.442 190.266 330.633 189.674C330.83 189.083 331.101 188.575 331.445 188.15C331.796 187.725 332.215 187.399 332.702 187.171C333.188 186.937 333.73 186.82 334.328 186.82C334.808 186.82 335.242 186.888 335.63 187.023C336.024 187.153 336.36 187.365 336.637 187.661C336.92 187.956 337.136 188.341 337.284 188.815C337.431 189.283 337.505 189.859 337.505 190.543V197H335.27V190.534C335.27 190.053 335.199 189.674 335.057 189.397C334.922 189.114 334.722 188.914 334.457 188.797C334.198 188.674 333.875 188.612 333.487 188.612C333.105 188.612 332.763 188.692 332.462 188.852C332.16 189.012 331.904 189.231 331.695 189.508C331.492 189.785 331.335 190.106 331.224 190.469C331.113 190.832 331.057 191.22 331.057 191.633ZM344.36 187.005V188.631H338.725V187.005H344.36ZM340.351 184.557H342.577V194.238C342.577 194.546 342.62 194.783 342.706 194.949C342.799 195.109 342.925 195.217 343.085 195.273C343.245 195.328 343.433 195.356 343.649 195.356C343.802 195.356 343.95 195.346 344.092 195.328C344.234 195.309 344.347 195.291 344.434 195.273L344.443 196.972C344.258 197.028 344.043 197.077 343.796 197.12C343.556 197.163 343.279 197.185 342.965 197.185C342.454 197.185 342.001 197.095 341.607 196.917C341.213 196.732 340.905 196.433 340.683 196.021C340.461 195.608 340.351 195.06 340.351 194.376V184.557ZM348.461 187.005V197H346.226V187.005H348.461ZM346.078 184.381C346.078 184.043 346.189 183.762 346.411 183.541C346.638 183.313 346.953 183.199 347.353 183.199C347.747 183.199 348.058 183.313 348.286 183.541C348.514 183.762 348.628 184.043 348.628 184.381C348.628 184.714 348.514 184.991 348.286 185.213C348.058 185.434 347.747 185.545 347.353 185.545C346.953 185.545 346.638 185.434 346.411 185.213C346.189 184.991 346.078 184.714 346.078 184.381ZM355.482 187.005V188.631H349.847V187.005H355.482ZM351.473 184.557H353.699V194.238C353.699 194.546 353.742 194.783 353.829 194.949C353.921 195.109 354.047 195.217 354.207 195.273C354.367 195.328 354.555 195.356 354.771 195.356C354.925 195.356 355.073 195.346 355.214 195.328C355.356 195.309 355.47 195.291 355.556 195.273L355.565 196.972C355.38 197.028 355.165 197.077 354.919 197.12C354.678 197.163 354.401 197.185 354.087 197.185C353.576 197.185 353.123 197.095 352.729 196.917C352.335 196.732 352.027 196.433 351.805 196.021C351.584 195.608 351.473 195.06 351.473 194.376V184.557ZM360.101 195.91L362.817 187.005H365.2L361.191 198.524C361.099 198.771 360.979 199.038 360.831 199.328C360.683 199.617 360.489 199.891 360.249 200.15C360.015 200.415 359.722 200.627 359.371 200.787C359.02 200.954 358.595 201.037 358.096 201.037C357.899 201.037 357.708 201.018 357.524 200.981C357.345 200.951 357.176 200.917 357.016 200.88L357.006 199.18C357.068 199.186 357.142 199.192 357.228 199.199C357.32 199.205 357.394 199.208 357.45 199.208C357.819 199.208 358.127 199.162 358.373 199.069C358.62 198.983 358.82 198.841 358.974 198.644C359.134 198.447 359.27 198.182 359.38 197.85L360.101 195.91ZM358.567 187.005L360.942 194.487L361.339 196.834L359.796 197.231L356.166 187.005H358.567Z" fill="#F9F9F9"/>
</g>
</g>
</svg>
